<svg xmlns="http://www.w3.org/2000/svg" width="1312" height="223" viewBox="0 0 1312 223" font-family="Arial, sans-serif">
<defs>
  <!-- Sequence flow: filled triangle (OMG spec Fig 10.43) -->
  <marker id="seq-end" viewBox="0 0 20 20" refX="11" refY="10"
    markerWidth="10" markerHeight="10" orient="auto">
    <path d="M 1 5 L 11 10 L 1 15 Z" fill="#000000" stroke="#000000" stroke-width="1"/>
  </marker>
  <!-- Default flow: diagonal slash at source (OMG spec Fig 10.47) -->
  <marker id="seq-default-src" viewBox="0 0 20 20" refX="6" refY="10"
    markerWidth="10" markerHeight="10" orient="auto">
    <path d="M 6 3 L 10 17" stroke="#000000" stroke-width="1.5"/>
  </marker>
  <!-- Conditional flow: open diamond at source (OMG spec Fig 10.48) -->
  <marker id="seq-conditional-src" viewBox="0 0 20 20" refX="1" refY="10"
    markerWidth="12" markerHeight="12" orient="auto">
    <path d="M 1 10 L 8 6 L 15 10 L 8 14 Z" fill="#ffffff" stroke="#000000" stroke-width="1"/>
  </marker>
  <!-- Message flow: open circle at source (OMG spec Fig 9.5) -->
  <marker id="msg-start" viewBox="0 0 20 20" refX="6" refY="6"
    markerWidth="20" markerHeight="20" orient="auto">
    <circle cx="6" cy="6" r="3.5" fill="#ffffff" stroke="#000000" stroke-width="1"/>
  </marker>
  <!-- Message flow: open arrowhead at target -->
  <marker id="msg-end" viewBox="0 0 20 20" refX="8.5" refY="5"
    markerWidth="20" markerHeight="20" orient="auto">
    <path d="m 1 5 l 0 -3 l 7 3 l -7 3 z" fill="#ffffff" stroke="#000000" stroke-width="1" stroke-linecap="butt"/>
  </marker>
  <!-- Association: open chevron -->
  <marker id="assoc-end" viewBox="0 0 20 20" refX="11" refY="10"
    markerWidth="10" markerHeight="10" orient="auto">
    <path d="M 1 5 L 11 10 L 1 15" fill="none" stroke="#000000" stroke-width="1.5"/>
  </marker>
</defs>
<rect width="1312" height="223" fill="#fafafa"/>
<path d="M 86 102.5 L 166 102.5" stroke="#000000" stroke-width="1.5" fill="none"  marker-end="url(#seq-end)"/>
<path d="M 266 103 L 346 103" stroke="#000000" stroke-width="1.5" fill="none"  marker-end="url(#seq-end)"/>
<path d="M 446 103 L 526 103" stroke="#000000" stroke-width="1.5" fill="none"  marker-end="url(#seq-end)"/>
<path d="M 576 102.5 L 656 102.5 L 656 90 L 736 90" stroke="#000000" stroke-width="1.5" fill="none" marker-start="url(#seq-conditional-src)" marker-end="url(#seq-end)"/>
<rect x="603.6" y="77" width="92.5" height="16" rx="2" fill="white" fill-opacity="0.9"/>
<text x="649.8" y="89" text-anchor="middle" font-size="10" fill="#000000">Below reorder</text>
<path d="M 836 90 L 916 90" stroke="#000000" stroke-width="1.5" fill="none"  marker-end="url(#seq-end)"/>
<path d="M 563.5 115 L 706 115 L 706 140 L 866 140 L 866 115 L 928.5 115" stroke="#000000" stroke-width="1.5" fill="none" marker-start="url(#seq-default-src)" marker-end="url(#seq-end)"/>
<rect x="598.3" y="102" width="73" height="16" rx="2" fill="white" fill-opacity="0.9"/>
<text x="634.8" y="114" text-anchor="middle" font-size="10" fill="#000000">Sufficient</text>
<path d="M 966 102.5 L 1046 103" stroke="#000000" stroke-width="1.5" fill="none"  marker-end="url(#seq-end)"/>
<path d="M 1146 102.5 L 1226 102.5" stroke="#000000" stroke-width="1.5" fill="none"  marker-end="url(#seq-end)"/>
<circle cx="68" cy="102.5" r="18" fill="#ffffff" fill-opacity="0.95" stroke="#000000" stroke-width="2"/>
<rect x="61" y="97.5" width="14" height="10" fill="#ffffff" stroke="#000000" stroke-width="1.5"/><path d="M 61,97.5 L 68,103.5 L 75,97.5" fill="none" stroke="#000000" stroke-width="1.5"/>
<text x="68" y="140.5" text-anchor="middle" font-size="11" fill="#000000">Stock movement</text>
<text x="68" y="153.5" text-anchor="middle" font-size="11" fill="#000000">logged</text>
<rect x="166" y="63" width="100" height="80" rx="10" ry="10" fill="#ffffff" fill-opacity="0.95" stroke="#000000" stroke-width="2"/>
<g><path d="m 184,87 v -1.713 c 0.352,-0.071 0.704,-0.178 1.048,-0.321 0.344,-0.145 0.666,-0.321 0.966,-0.521 l 1.194,1.18 1.567,-1.577 -1.195,-1.18 c 0.403,-0.614 0.683,-1.299 0.825,-2.018 l 1.622,-0.01 v -2.22 l -1.637,0.01 c -0.073,-0.352 -0.178,-0.7 -0.324,-1.044 -0.145,-0.344 -0.321,-0.664 -0.523,-0.962 l 1.131,-1.136 -1.583,-1.563 -1.13,1.136 c -0.614,-0.401 -1.303,-0.681 -2.023,-0.822 l 0.009,-1.619 h -2.241 l 0.004,1.631 c -0.354,0.074 -0.705,0.18 -1.05,0.324 -0.344,0.144 -0.665,0.321 -0.964,0.52 l -1.17,-1.158 -1.567,1.579 1.168,1.157 c -0.403,0.613 -0.683,1.298 -0.825,2.017 l -1.659,0.003 v 2.222 l 1.672,-0.006 c 0.073,0.351 0.18,0.702 0.324,1.045 0.145,0.344 0.321,0.664 0.523,0.961 l -1.199,1.197 1.584,1.56 1.196,-1.193 c 0.614,0.403 1.303,0.682 2.023,0.823 l 0.001,1.699 h 2.227 z m 0.221,-3.996 c -1.789,0.75 -3.858,-0.093 -4.61,-1.874 -0.752,-1.783 0.091,-3.846 1.88,-4.596 1.788,-0.749 3.857,0.093 4.609,1.874 0.752,1.782 -0.091,3.846 -1.879,4.596 z" fill="#ffffff" stroke="#000000" stroke-width="0.5"/><path d="m 184.221,83.004 c -1.789,0.75 -3.858,-0.093 -4.61,-1.874 -0.752,-1.783 0.091,-3.846 1.88,-4.596 1.788,-0.749 3.857,0.093 4.609,1.874 0.752,1.782 -0.091,3.846 -1.879,4.596 z" fill="none" stroke="#000000" stroke-width="0.5"/><path d="m 189,91 v -1.713 c 0.352,-0.071 0.704,-0.178 1.048,-0.321 0.344,-0.145 0.666,-0.321 0.966,-0.521 l 1.194,1.18 1.567,-1.577 -1.195,-1.18 c 0.403,-0.614 0.683,-1.299 0.825,-2.018 l 1.622,-0.01 v -2.22 l -1.637,0.01 c -0.073,-0.352 -0.178,-0.7 -0.324,-1.044 -0.145,-0.344 -0.321,-0.664 -0.523,-0.962 l 1.131,-1.136 -1.583,-1.563 -1.13,1.136 c -0.614,-0.401 -1.303,-0.681 -2.023,-0.822 l 0.009,-1.619 h -2.241 l 0.004,1.631 c -0.354,0.074 -0.705,0.18 -1.05,0.324 -0.344,0.144 -0.665,0.321 -0.964,0.52 l -1.17,-1.158 -1.567,1.579 1.168,1.157 c -0.403,0.613 -0.683,1.298 -0.825,2.017 l -1.659,0.003 v 2.222 l 1.672,-0.006 c 0.073,0.351 0.18,0.702 0.324,1.045 0.145,0.344 0.321,0.664 0.523,0.961 l -1.199,1.197 1.584,1.56 1.196,-1.193 c 0.614,0.403 1.303,0.682 2.023,0.823 l 0.001,1.699 h 2.227 z m 0.221,-3.996 c -1.789,0.75 -3.858,-0.093 -4.61,-1.874 -0.752,-1.783 0.091,-3.846 1.88,-4.596 1.788,-0.749 3.857,0.093 4.609,1.874 0.752,1.782 -0.091,3.846 -1.879,4.596 z" fill="#ffffff" stroke="#000000" stroke-width="0.5"/><path d="m 189.221,87.004 c -1.789,0.75 -3.858,-0.093 -4.61,-1.874 -0.752,-1.783 0.091,-3.846 1.88,-4.596 1.788,-0.749 3.857,0.093 4.609,1.874 0.752,1.782 -0.091,3.846 -1.879,4.596 z" fill="#000000" stroke="#000000" stroke-width="0.5"/></g>
<text x="216" y="105" text-anchor="middle" dominant-baseline="middle" font-size="12" fill="#000000">Update stock</text>
<text x="216" y="119" text-anchor="middle" dominant-baseline="middle" font-size="12" fill="#000000">levels</text>
<rect x="346" y="63" width="100" height="80" rx="10" ry="10" fill="#ffffff" fill-opacity="0.95" stroke="#000000" stroke-width="2"/>
<g><path d="m 352,68 l 0,14 l 21,0 l 0,-14 z l 10.5,6 l 10.5,-6" fill="#000000" stroke="#ffffff" stroke-width="0.5"/></g>
<text x="396" y="105" text-anchor="middle" dominant-baseline="middle" font-size="12" fill="#000000">Register gear</text>
<text x="396" y="119" text-anchor="middle" dominant-baseline="middle" font-size="12" fill="#000000">as equipment</text>
<polygon points="551,77.5 576,102.5 551,127.5 526,102.5" fill="#ffffff" fill-opacity="0.95" stroke="#000000" stroke-width="2"/>
<line x1="542" y1="93.5" x2="560" y2="111.5" stroke="#000000" stroke-width="3" stroke-linecap="round"/>
<line x1="560" y1="93.5" x2="542" y2="111.5" stroke="#000000" stroke-width="3" stroke-linecap="round"/>
<text x="551" y="147.5" text-anchor="middle" font-size="11" fill="#000000">Below reorder</text>
<text x="551" y="160.5" text-anchor="middle" font-size="11" fill="#000000">point?</text>
<rect x="736" y="50" width="100" height="80" rx="10" ry="10" fill="#ffffff" fill-opacity="0.95" stroke="#000000" stroke-width="2"/>
<g><path d="m 751,62 c 0.909,-0.845 1.594,-2.049 1.594,-3.385 0,-2.554 -1.805,-4.622 -4.357,-4.622 -2.552,0 -4.288,2.068 -4.288,4.622 0,1.348 0.974,2.562 1.896,3.405 -0.529,0.187 -5.669,2.097 -5.794,4.756 v 6.718 h 17 v -6.718 c 0,-2.298 -5.528,-4.595 -6.051,-4.776 z m -8,6 l 0,5.5 m 11,0 l 0,-5" fill="#ffffff" stroke="#000000" stroke-width="0.5"/><path d="m 753.162,63.009 c 0,2.447 -2.158,4.431 -4.821,4.431 -2.665,0 -4.822,-1.981 -4.822,-4.431" fill="none" stroke="#000000" stroke-width="0.5"/><path d="m 744.1,58.2 c 0,0 2.251,-2.358 4.274,-1.177 2.024,1.181 4.221,1.537 4.124,0.965 -0.098,-0.57 -0.117,-3.791 -4.191,-4.136 -3.575,0.001 -4.208,3.367 -4.207,4.348 z" fill="#000000" stroke="#000000" stroke-width="0.5"/></g>
<text x="786" y="92" text-anchor="middle" dominant-baseline="middle" font-size="12" fill="#000000">Raise restock /</text>
<text x="786" y="106" text-anchor="middle" dominant-baseline="middle" font-size="12" fill="#000000">procurement</text>
<polygon points="941,77.5 966,102.5 941,127.5 916,102.5" fill="#ffffff" fill-opacity="0.95" stroke="#000000" stroke-width="2"/>
<line x1="932" y1="93.5" x2="950" y2="111.5" stroke="#000000" stroke-width="3" stroke-linecap="round"/>
<line x1="950" y1="93.5" x2="932" y2="111.5" stroke="#000000" stroke-width="3" stroke-linecap="round"/>

<rect x="1046" y="63" width="100" height="80" rx="10" ry="10" fill="#ffffff" fill-opacity="0.95" stroke="#000000" stroke-width="2"/>
<g><path d="m 1064,87 v -1.713 c 0.352,-0.071 0.704,-0.178 1.048,-0.321 0.344,-0.145 0.666,-0.321 0.966,-0.521 l 1.194,1.18 1.567,-1.577 -1.195,-1.18 c 0.403,-0.614 0.683,-1.299 0.825,-2.018 l 1.622,-0.01 v -2.22 l -1.637,0.01 c -0.073,-0.352 -0.178,-0.7 -0.324,-1.044 -0.145,-0.344 -0.321,-0.664 -0.523,-0.962 l 1.131,-1.136 -1.583,-1.563 -1.13,1.136 c -0.614,-0.401 -1.303,-0.681 -2.023,-0.822 l 0.009,-1.619 h -2.241 l 0.004,1.631 c -0.354,0.074 -0.705,0.18 -1.05,0.324 -0.344,0.144 -0.665,0.321 -0.964,0.52 l -1.17,-1.158 -1.567,1.579 1.168,1.157 c -0.403,0.613 -0.683,1.298 -0.825,2.017 l -1.659,0.003 v 2.222 l 1.672,-0.006 c 0.073,0.351 0.18,0.702 0.324,1.045 0.145,0.344 0.321,0.664 0.523,0.961 l -1.199,1.197 1.584,1.56 1.196,-1.193 c 0.614,0.403 1.303,0.682 2.023,0.823 l 0.001,1.699 h 2.227 z m 0.221,-3.996 c -1.789,0.75 -3.858,-0.093 -4.61,-1.874 -0.752,-1.783 0.091,-3.846 1.88,-4.596 1.788,-0.749 3.857,0.093 4.609,1.874 0.752,1.782 -0.091,3.846 -1.879,4.596 z" fill="#ffffff" stroke="#000000" stroke-width="0.5"/><path d="m 1064.221,83.004 c -1.789,0.75 -3.858,-0.093 -4.61,-1.874 -0.752,-1.783 0.091,-3.846 1.88,-4.596 1.788,-0.749 3.857,0.093 4.609,1.874 0.752,1.782 -0.091,3.846 -1.879,4.596 z" fill="none" stroke="#000000" stroke-width="0.5"/><path d="m 1069,91 v -1.713 c 0.352,-0.071 0.704,-0.178 1.048,-0.321 0.344,-0.145 0.666,-0.321 0.966,-0.521 l 1.194,1.18 1.567,-1.577 -1.195,-1.18 c 0.403,-0.614 0.683,-1.299 0.825,-2.018 l 1.622,-0.01 v -2.22 l -1.637,0.01 c -0.073,-0.352 -0.178,-0.7 -0.324,-1.044 -0.145,-0.344 -0.321,-0.664 -0.523,-0.962 l 1.131,-1.136 -1.583,-1.563 -1.13,1.136 c -0.614,-0.401 -1.303,-0.681 -2.023,-0.822 l 0.009,-1.619 h -2.241 l 0.004,1.631 c -0.354,0.074 -0.705,0.18 -1.05,0.324 -0.344,0.144 -0.665,0.321 -0.964,0.52 l -1.17,-1.158 -1.567,1.579 1.168,1.157 c -0.403,0.613 -0.683,1.298 -0.825,2.017 l -1.659,0.003 v 2.222 l 1.672,-0.006 c 0.073,0.351 0.18,0.702 0.324,1.045 0.145,0.344 0.321,0.664 0.523,0.961 l -1.199,1.197 1.584,1.56 1.196,-1.193 c 0.614,0.403 1.303,0.682 2.023,0.823 l 0.001,1.699 h 2.227 z m 0.221,-3.996 c -1.789,0.75 -3.858,-0.093 -4.61,-1.874 -0.752,-1.783 0.091,-3.846 1.88,-4.596 1.788,-0.749 3.857,0.093 4.609,1.874 0.752,1.782 -0.091,3.846 -1.879,4.596 z" fill="#ffffff" stroke="#000000" stroke-width="0.5"/><path d="m 1069.221,87.004 c -1.789,0.75 -3.858,-0.093 -4.61,-1.874 -0.752,-1.783 0.091,-3.846 1.88,-4.596 1.788,-0.749 3.857,0.093 4.609,1.874 0.752,1.782 -0.091,3.846 -1.879,4.596 z" fill="#000000" stroke="#000000" stroke-width="0.5"/></g>
<text x="1096" y="98" text-anchor="middle" dominant-baseline="middle" font-size="12" fill="#000000">Refresh</text>
<text x="1096" y="112" text-anchor="middle" dominant-baseline="middle" font-size="12" fill="#000000">inventory</text>
<text x="1096" y="126" text-anchor="middle" dominant-baseline="middle" font-size="12" fill="#000000">report</text>
<circle cx="1244" cy="102.5" r="18" fill="#ffffff" fill-opacity="0.95" stroke="#000000" stroke-width="4"/>
<text x="1244" y="140.5" text-anchor="middle" font-size="11" fill="#000000">Inventory</text>
<text x="1244" y="153.5" text-anchor="middle" font-size="11" fill="#000000">updated</text>
</svg>