<svg xmlns="http://www.w3.org/2000/svg" width="1512" height="915" viewBox="0 0 1512 915" font-family="Arial, sans-serif">
<defs>
  <!-- Sequence flow: filled triangle (OMG spec Fig 10.43) -->
  <marker id="seq-end" viewBox="0 0 20 20" refX="11" refY="10"
    markerWidth="10" markerHeight="10" orient="auto">
    <path d="M 1 5 L 11 10 L 1 15 Z" fill="#000000" stroke="#000000" stroke-width="1"/>
  </marker>
  <!-- Default flow: diagonal slash at source (OMG spec Fig 10.47) -->
  <marker id="seq-default-src" viewBox="0 0 20 20" refX="6" refY="10"
    markerWidth="10" markerHeight="10" orient="auto">
    <path d="M 6 3 L 10 17" stroke="#000000" stroke-width="1.5"/>
  </marker>
  <!-- Conditional flow: open diamond at source (OMG spec Fig 10.48) -->
  <marker id="seq-conditional-src" viewBox="0 0 20 20" refX="1" refY="10"
    markerWidth="12" markerHeight="12" orient="auto">
    <path d="M 1 10 L 8 6 L 15 10 L 8 14 Z" fill="#ffffff" stroke="#000000" stroke-width="1"/>
  </marker>
  <!-- Message flow: open circle at source (OMG spec Fig 9.5) -->
  <marker id="msg-start" viewBox="0 0 20 20" refX="6" refY="6"
    markerWidth="20" markerHeight="20" orient="auto">
    <circle cx="6" cy="6" r="3.5" fill="#ffffff" stroke="#000000" stroke-width="1"/>
  </marker>
  <!-- Message flow: open arrowhead at target -->
  <marker id="msg-end" viewBox="0 0 20 20" refX="8.5" refY="5"
    markerWidth="20" markerHeight="20" orient="auto">
    <path d="m 1 5 l 0 -3 l 7 3 l -7 3 z" fill="#ffffff" stroke="#000000" stroke-width="1" stroke-linecap="butt"/>
  </marker>
  <!-- Association: open chevron -->
  <marker id="assoc-end" viewBox="0 0 20 20" refX="11" refY="10"
    markerWidth="10" markerHeight="10" orient="auto">
    <path d="M 1 5 L 11 10 L 1 15" fill="none" stroke="#000000" stroke-width="1.5"/>
  </marker>
</defs>
<rect width="1512" height="915" fill="#fafafa"/>
<rect x="80" y="415" width="1382" height="225" fill="#ffffff" fill-opacity="0.25" stroke="#000000" stroke-width="1.5"/>
<rect x="50" y="415" width="30" height="225" fill="#f0f0f0" stroke="#000000" stroke-width="1.5"/>
<text x="65" y="527.5" text-anchor="middle" dominant-baseline="middle" font-size="11" fill="#000000" transform="rotate(-90,65,527.5)">Equipment Reservation</text>
<rect x="80" y="640" width="1382" height="225" fill="#ffffff" fill-opacity="0.25" stroke="#000000" stroke-width="1.5"/>
<rect x="50" y="640" width="30" height="225" fill="#f0f0f0" stroke="#000000" stroke-width="1.5"/>
<text x="65" y="752.5" text-anchor="middle" dominant-baseline="middle" font-size="11" fill="#000000" transform="rotate(-90,65,752.5)">Sign</text>
<rect x="80" y="50" width="1382" height="365" fill="#ffffff" fill-opacity="0.25" stroke="#000000" stroke-width="1.5"/>
<rect x="50" y="50" width="30" height="365" fill="#f0f0f0" stroke="#000000" stroke-width="1.5"/>
<text x="65" y="232.5" text-anchor="middle" dominant-baseline="middle" font-size="11" fill="#000000" transform="rotate(-90,65,232.5)">Inventory</text>
<path d="M 176 514.5 L 256 514.5" stroke="#000000" stroke-width="1.5" fill="none"  marker-end="url(#seq-end)"/>
<path d="M 356 555 L 356 700 L 436 700" stroke="#000000" stroke-width="1.5" fill="none"  marker-end="url(#seq-end)"/>
<path d="M 536 740 L 616 740" stroke="#000000" stroke-width="1.5" fill="none"  marker-end="url(#seq-end)"/>
<path d="M 716 780 L 716 318 L 796 318" stroke="#000000" stroke-width="1.5" fill="none"  marker-end="url(#seq-end)"/>
<path d="M 896 278 L 976 278" stroke="#000000" stroke-width="1.5" fill="none"  marker-end="url(#seq-end)"/>
<path d="M 1026 277.5 L 1166 277.5 L 1166 150" stroke="#000000" stroke-width="1.5" fill="none" marker-start="url(#seq-default-src)" marker-end="url(#seq-end)"/>
<rect x="1047.3" y="264.5" width="27.5" height="16" rx="2" fill="white" fill-opacity="0.9"/>
<text x="1061" y="276.5" text-anchor="middle" font-size="10" fill="#000000">Yes</text>
<path d="M 1266 149.5 L 1346 149.5" stroke="#000000" stroke-width="1.5" fill="none"  marker-end="url(#seq-end)"/>
<path d="M 1001 302.5 L 1186 302.5 L 1186 330" stroke="#000000" stroke-width="1.5" fill="none" marker-start="url(#seq-conditional-src)" marker-end="url(#seq-end)"/>
<rect x="1083" y="289.5" width="21" height="16" rx="2" fill="white" fill-opacity="0.9"/>
<text x="1093.5" y="301.5" text-anchor="middle" font-size="10" fill="#000000">No</text>
<path d="M 1286 289.5 L 1366 289.5" stroke="#000000" stroke-width="1.5" fill="none"  marker-end="url(#seq-end)"/>
<circle cx="158" cy="514.5" r="18" fill="#ffffff" fill-opacity="0.95" stroke="#000000" stroke-width="2"/>
<text x="158" y="552.5" text-anchor="middle" font-size="11" fill="#000000">Gear checkout</text>
<text x="158" y="565.5" text-anchor="middle" font-size="11" fill="#000000">requested</text>
<rect x="256" y="475" width="100" height="80" rx="10" ry="10" fill="#ffffff" fill-opacity="0.95" stroke="#000000" stroke-width="2"/>
<g><path d="m 274,499 v -1.713 c 0.352,-0.071 0.704,-0.178 1.048,-0.321 0.344,-0.145 0.666,-0.321 0.966,-0.521 l 1.194,1.18 1.567,-1.577 -1.195,-1.18 c 0.403,-0.614 0.683,-1.299 0.825,-2.018 l 1.622,-0.01 v -2.22 l -1.637,0.01 c -0.073,-0.352 -0.178,-0.7 -0.324,-1.044 -0.145,-0.344 -0.321,-0.664 -0.523,-0.962 l 1.131,-1.136 -1.583,-1.563 -1.13,1.136 c -0.614,-0.401 -1.303,-0.681 -2.023,-0.822 l 0.009,-1.619 h -2.241 l 0.004,1.631 c -0.354,0.074 -0.705,0.18 -1.05,0.324 -0.344,0.144 -0.665,0.321 -0.964,0.52 l -1.17,-1.158 -1.567,1.579 1.168,1.157 c -0.403,0.613 -0.683,1.298 -0.825,2.017 l -1.659,0.003 v 2.222 l 1.672,-0.006 c 0.073,0.351 0.18,0.702 0.324,1.045 0.145,0.344 0.321,0.664 0.523,0.961 l -1.199,1.197 1.584,1.56 1.196,-1.193 c 0.614,0.403 1.303,0.682 2.023,0.823 l 0.001,1.699 h 2.227 z m 0.221,-3.996 c -1.789,0.75 -3.858,-0.093 -4.61,-1.874 -0.752,-1.783 0.091,-3.846 1.88,-4.596 1.788,-0.749 3.857,0.093 4.609,1.874 0.752,1.782 -0.091,3.846 -1.879,4.596 z" fill="#ffffff" stroke="#000000" stroke-width="0.5"/><path d="m 274.221,495.004 c -1.789,0.75 -3.858,-0.093 -4.61,-1.874 -0.752,-1.783 0.091,-3.846 1.88,-4.596 1.788,-0.749 3.857,0.093 4.609,1.874 0.752,1.782 -0.091,3.846 -1.879,4.596 z" fill="none" stroke="#000000" stroke-width="0.5"/><path d="m 279,503 v -1.713 c 0.352,-0.071 0.704,-0.178 1.048,-0.321 0.344,-0.145 0.666,-0.321 0.966,-0.521 l 1.194,1.18 1.567,-1.577 -1.195,-1.18 c 0.403,-0.614 0.683,-1.299 0.825,-2.018 l 1.622,-0.01 v -2.22 l -1.637,0.01 c -0.073,-0.352 -0.178,-0.7 -0.324,-1.044 -0.145,-0.344 -0.321,-0.664 -0.523,-0.962 l 1.131,-1.136 -1.583,-1.563 -1.13,1.136 c -0.614,-0.401 -1.303,-0.681 -2.023,-0.822 l 0.009,-1.619 h -2.241 l 0.004,1.631 c -0.354,0.074 -0.705,0.18 -1.05,0.324 -0.344,0.144 -0.665,0.321 -0.964,0.52 l -1.17,-1.158 -1.567,1.579 1.168,1.157 c -0.403,0.613 -0.683,1.298 -0.825,2.017 l -1.659,0.003 v 2.222 l 1.672,-0.006 c 0.073,0.351 0.18,0.702 0.324,1.045 0.145,0.344 0.321,0.664 0.523,0.961 l -1.199,1.197 1.584,1.56 1.196,-1.193 c 0.614,0.403 1.303,0.682 2.023,0.823 l 0.001,1.699 h 2.227 z m 0.221,-3.996 c -1.789,0.75 -3.858,-0.093 -4.61,-1.874 -0.752,-1.783 0.091,-3.846 1.88,-4.596 1.788,-0.749 3.857,0.093 4.609,1.874 0.752,1.782 -0.091,3.846 -1.879,4.596 z" fill="#ffffff" stroke="#000000" stroke-width="0.5"/><path d="m 279.221,499.004 c -1.789,0.75 -3.858,-0.093 -4.61,-1.874 -0.752,-1.783 0.091,-3.846 1.88,-4.596 1.788,-0.749 3.857,0.093 4.609,1.874 0.752,1.782 -0.091,3.846 -1.879,4.596 z" fill="#000000" stroke="#000000" stroke-width="0.5"/></g>
<text x="306" y="524" text-anchor="middle" dominant-baseline="middle" font-size="12" fill="#000000">Reserve gear</text>
<rect x="436" y="700" width="100" height="80" rx="10" ry="10" fill="#ffffff" fill-opacity="0.95" stroke="#000000" stroke-width="2"/>
<g><path d="m 451,712 c 0.909,-0.845 1.594,-2.049 1.594,-3.385 0,-2.554 -1.805,-4.622 -4.357,-4.622 -2.552,0 -4.288,2.068 -4.288,4.622 0,1.348 0.974,2.562 1.896,3.405 -0.529,0.187 -5.669,2.097 -5.794,4.756 v 6.718 h 17 v -6.718 c 0,-2.298 -5.528,-4.595 -6.051,-4.776 z m -8,6 l 0,5.5 m 11,0 l 0,-5" fill="#ffffff" stroke="#000000" stroke-width="0.5"/><path d="m 453.162,713.009 c 0,2.447 -2.158,4.431 -4.821,4.431 -2.665,0 -4.822,-1.981 -4.822,-4.431" fill="none" stroke="#000000" stroke-width="0.5"/><path d="m 444.1,708.2 c 0,0 2.251,-2.358 4.274,-1.177 2.024,1.181 4.221,1.537 4.124,0.965 -0.098,-0.57 -0.117,-3.791 -4.191,-4.136 -3.575,0.001 -4.208,3.367 -4.207,4.348 z" fill="#000000" stroke="#000000" stroke-width="0.5"/></g>
<text x="486" y="742" text-anchor="middle" dominant-baseline="middle" font-size="12" fill="#000000">Guest signs</text>
<text x="486" y="756" text-anchor="middle" dominant-baseline="middle" font-size="12" fill="#000000">agreement</text>
<rect x="616" y="700" width="100" height="80" rx="10" ry="10" fill="#ffffff" fill-opacity="0.95" stroke="#000000" stroke-width="2"/>
<g><path d="m 634,724 v -1.713 c 0.352,-0.071 0.704,-0.178 1.048,-0.321 0.344,-0.145 0.666,-0.321 0.966,-0.521 l 1.194,1.18 1.567,-1.577 -1.195,-1.18 c 0.403,-0.614 0.683,-1.299 0.825,-2.018 l 1.622,-0.01 v -2.22 l -1.637,0.01 c -0.073,-0.352 -0.178,-0.7 -0.324,-1.044 -0.145,-0.344 -0.321,-0.664 -0.523,-0.962 l 1.131,-1.136 -1.583,-1.563 -1.13,1.136 c -0.614,-0.401 -1.303,-0.681 -2.023,-0.822 l 0.009,-1.619 h -2.241 l 0.004,1.631 c -0.354,0.074 -0.705,0.18 -1.05,0.324 -0.344,0.144 -0.665,0.321 -0.964,0.52 l -1.17,-1.158 -1.567,1.579 1.168,1.157 c -0.403,0.613 -0.683,1.298 -0.825,2.017 l -1.659,0.003 v 2.222 l 1.672,-0.006 c 0.073,0.351 0.18,0.702 0.324,1.045 0.145,0.344 0.321,0.664 0.523,0.961 l -1.199,1.197 1.584,1.56 1.196,-1.193 c 0.614,0.403 1.303,0.682 2.023,0.823 l 0.001,1.699 h 2.227 z m 0.221,-3.996 c -1.789,0.75 -3.858,-0.093 -4.61,-1.874 -0.752,-1.783 0.091,-3.846 1.88,-4.596 1.788,-0.749 3.857,0.093 4.609,1.874 0.752,1.782 -0.091,3.846 -1.879,4.596 z" fill="#ffffff" stroke="#000000" stroke-width="0.5"/><path d="m 634.221,720.004 c -1.789,0.75 -3.858,-0.093 -4.61,-1.874 -0.752,-1.783 0.091,-3.846 1.88,-4.596 1.788,-0.749 3.857,0.093 4.609,1.874 0.752,1.782 -0.091,3.846 -1.879,4.596 z" fill="none" stroke="#000000" stroke-width="0.5"/><path d="m 639,728 v -1.713 c 0.352,-0.071 0.704,-0.178 1.048,-0.321 0.344,-0.145 0.666,-0.321 0.966,-0.521 l 1.194,1.18 1.567,-1.577 -1.195,-1.18 c 0.403,-0.614 0.683,-1.299 0.825,-2.018 l 1.622,-0.01 v -2.22 l -1.637,0.01 c -0.073,-0.352 -0.178,-0.7 -0.324,-1.044 -0.145,-0.344 -0.321,-0.664 -0.523,-0.962 l 1.131,-1.136 -1.583,-1.563 -1.13,1.136 c -0.614,-0.401 -1.303,-0.681 -2.023,-0.822 l 0.009,-1.619 h -2.241 l 0.004,1.631 c -0.354,0.074 -0.705,0.18 -1.05,0.324 -0.344,0.144 -0.665,0.321 -0.964,0.52 l -1.17,-1.158 -1.567,1.579 1.168,1.157 c -0.403,0.613 -0.683,1.298 -0.825,2.017 l -1.659,0.003 v 2.222 l 1.672,-0.006 c 0.073,0.351 0.18,0.702 0.324,1.045 0.145,0.344 0.321,0.664 0.523,0.961 l -1.199,1.197 1.584,1.56 1.196,-1.193 c 0.614,0.403 1.303,0.682 2.023,0.823 l 0.001,1.699 h 2.227 z m 0.221,-3.996 c -1.789,0.75 -3.858,-0.093 -4.61,-1.874 -0.752,-1.783 0.091,-3.846 1.88,-4.596 1.788,-0.749 3.857,0.093 4.609,1.874 0.752,1.782 -0.091,3.846 -1.879,4.596 z" fill="#ffffff" stroke="#000000" stroke-width="0.5"/><path d="m 639.221,724.004 c -1.789,0.75 -3.858,-0.093 -4.61,-1.874 -0.752,-1.783 0.091,-3.846 1.88,-4.596 1.788,-0.749 3.857,0.093 4.609,1.874 0.752,1.782 -0.091,3.846 -1.879,4.596 z" fill="#000000" stroke="#000000" stroke-width="0.5"/></g>
<text x="666" y="742" text-anchor="middle" dominant-baseline="middle" font-size="12" fill="#000000">Archive signed</text>
<text x="666" y="756" text-anchor="middle" dominant-baseline="middle" font-size="12" fill="#000000">record</text>
<rect x="796" y="238" width="100" height="80" rx="10" ry="10" fill="#ffffff" fill-opacity="0.95" stroke="#000000" stroke-width="2"/>
<g><path d="m 814,262 v -1.713 c 0.352,-0.071 0.704,-0.178 1.048,-0.321 0.344,-0.145 0.666,-0.321 0.966,-0.521 l 1.194,1.18 1.567,-1.577 -1.195,-1.18 c 0.403,-0.614 0.683,-1.299 0.825,-2.018 l 1.622,-0.01 v -2.22 l -1.637,0.01 c -0.073,-0.352 -0.178,-0.7 -0.324,-1.044 -0.145,-0.344 -0.321,-0.664 -0.523,-0.962 l 1.131,-1.136 -1.583,-1.563 -1.13,1.136 c -0.614,-0.401 -1.303,-0.681 -2.023,-0.822 l 0.009,-1.619 h -2.241 l 0.004,1.631 c -0.354,0.074 -0.705,0.18 -1.05,0.324 -0.344,0.144 -0.665,0.321 -0.964,0.52 l -1.17,-1.158 -1.567,1.579 1.168,1.157 c -0.403,0.613 -0.683,1.298 -0.825,2.017 l -1.659,0.003 v 2.222 l 1.672,-0.006 c 0.073,0.351 0.18,0.702 0.324,1.045 0.145,0.344 0.321,0.664 0.523,0.961 l -1.199,1.197 1.584,1.56 1.196,-1.193 c 0.614,0.403 1.303,0.682 2.023,0.823 l 0.001,1.699 h 2.227 z m 0.221,-3.996 c -1.789,0.75 -3.858,-0.093 -4.61,-1.874 -0.752,-1.783 0.091,-3.846 1.88,-4.596 1.788,-0.749 3.857,0.093 4.609,1.874 0.752,1.782 -0.091,3.846 -1.879,4.596 z" fill="#ffffff" stroke="#000000" stroke-width="0.5"/><path d="m 814.221,258.004 c -1.789,0.75 -3.858,-0.093 -4.61,-1.874 -0.752,-1.783 0.091,-3.846 1.88,-4.596 1.788,-0.749 3.857,0.093 4.609,1.874 0.752,1.782 -0.091,3.846 -1.879,4.596 z" fill="none" stroke="#000000" stroke-width="0.5"/><path d="m 819,266 v -1.713 c 0.352,-0.071 0.704,-0.178 1.048,-0.321 0.344,-0.145 0.666,-0.321 0.966,-0.521 l 1.194,1.18 1.567,-1.577 -1.195,-1.18 c 0.403,-0.614 0.683,-1.299 0.825,-2.018 l 1.622,-0.01 v -2.22 l -1.637,0.01 c -0.073,-0.352 -0.178,-0.7 -0.324,-1.044 -0.145,-0.344 -0.321,-0.664 -0.523,-0.962 l 1.131,-1.136 -1.583,-1.563 -1.13,1.136 c -0.614,-0.401 -1.303,-0.681 -2.023,-0.822 l 0.009,-1.619 h -2.241 l 0.004,1.631 c -0.354,0.074 -0.705,0.18 -1.05,0.324 -0.344,0.144 -0.665,0.321 -0.964,0.52 l -1.17,-1.158 -1.567,1.579 1.168,1.157 c -0.403,0.613 -0.683,1.298 -0.825,2.017 l -1.659,0.003 v 2.222 l 1.672,-0.006 c 0.073,0.351 0.18,0.702 0.324,1.045 0.145,0.344 0.321,0.664 0.523,0.961 l -1.199,1.197 1.584,1.56 1.196,-1.193 c 0.614,0.403 1.303,0.682 2.023,0.823 l 0.001,1.699 h 2.227 z m 0.221,-3.996 c -1.789,0.75 -3.858,-0.093 -4.61,-1.874 -0.752,-1.783 0.091,-3.846 1.88,-4.596 1.788,-0.749 3.857,0.093 4.609,1.874 0.752,1.782 -0.091,3.846 -1.879,4.596 z" fill="#ffffff" stroke="#000000" stroke-width="0.5"/><path d="m 819.221,262.004 c -1.789,0.75 -3.858,-0.093 -4.61,-1.874 -0.752,-1.783 0.091,-3.846 1.88,-4.596 1.788,-0.749 3.857,0.093 4.609,1.874 0.752,1.782 -0.091,3.846 -1.879,4.596 z" fill="#000000" stroke="#000000" stroke-width="0.5"/></g>
<text x="846" y="287" text-anchor="middle" dominant-baseline="middle" font-size="12" fill="#000000">Track gear out</text>
<polygon points="1001,252.5 1026,277.5 1001,302.5 976,277.5" fill="#ffffff" fill-opacity="0.95" stroke="#000000" stroke-width="2"/>
<line x1="992" y1="268.5" x2="1010" y2="286.5" stroke="#000000" stroke-width="3" stroke-linecap="round"/>
<line x1="1010" y1="268.5" x2="992" y2="286.5" stroke="#000000" stroke-width="3" stroke-linecap="round"/>
<text x="1001" y="322.5" text-anchor="middle" font-size="11" fill="#000000">All returned</text>
<text x="1001" y="335.5" text-anchor="middle" font-size="11" fill="#000000">OK?</text>
<rect x="1166" y="110" width="100" height="80" rx="10" ry="10" fill="#ffffff" fill-opacity="0.95" stroke="#000000" stroke-width="2"/>
<g><path d="m 1184,134 v -1.713 c 0.352,-0.071 0.704,-0.178 1.048,-0.321 0.344,-0.145 0.666,-0.321 0.966,-0.521 l 1.194,1.18 1.567,-1.577 -1.195,-1.18 c 0.403,-0.614 0.683,-1.299 0.825,-2.018 l 1.622,-0.01 v -2.22 l -1.637,0.01 c -0.073,-0.352 -0.178,-0.7 -0.324,-1.044 -0.145,-0.344 -0.321,-0.664 -0.523,-0.962 l 1.131,-1.136 -1.583,-1.563 -1.13,1.136 c -0.614,-0.401 -1.303,-0.681 -2.023,-0.822 l 0.009,-1.619 h -2.241 l 0.004,1.631 c -0.354,0.074 -0.705,0.18 -1.05,0.324 -0.344,0.144 -0.665,0.321 -0.964,0.52 l -1.17,-1.158 -1.567,1.579 1.168,1.157 c -0.403,0.613 -0.683,1.298 -0.825,2.017 l -1.659,0.003 v 2.222 l 1.672,-0.006 c 0.073,0.351 0.18,0.702 0.324,1.045 0.145,0.344 0.321,0.664 0.523,0.961 l -1.199,1.197 1.584,1.56 1.196,-1.193 c 0.614,0.403 1.303,0.682 2.023,0.823 l 0.001,1.699 h 2.227 z m 0.221,-3.996 c -1.789,0.75 -3.858,-0.093 -4.61,-1.874 -0.752,-1.783 0.091,-3.846 1.88,-4.596 1.788,-0.749 3.857,0.093 4.609,1.874 0.752,1.782 -0.091,3.846 -1.879,4.596 z" fill="#ffffff" stroke="#000000" stroke-width="0.5"/><path d="m 1184.221,130.004 c -1.789,0.75 -3.858,-0.093 -4.61,-1.874 -0.752,-1.783 0.091,-3.846 1.88,-4.596 1.788,-0.749 3.857,0.093 4.609,1.874 0.752,1.782 -0.091,3.846 -1.879,4.596 z" fill="none" stroke="#000000" stroke-width="0.5"/><path d="m 1189,138 v -1.713 c 0.352,-0.071 0.704,-0.178 1.048,-0.321 0.344,-0.145 0.666,-0.321 0.966,-0.521 l 1.194,1.18 1.567,-1.577 -1.195,-1.18 c 0.403,-0.614 0.683,-1.299 0.825,-2.018 l 1.622,-0.01 v -2.22 l -1.637,0.01 c -0.073,-0.352 -0.178,-0.7 -0.324,-1.044 -0.145,-0.344 -0.321,-0.664 -0.523,-0.962 l 1.131,-1.136 -1.583,-1.563 -1.13,1.136 c -0.614,-0.401 -1.303,-0.681 -2.023,-0.822 l 0.009,-1.619 h -2.241 l 0.004,1.631 c -0.354,0.074 -0.705,0.18 -1.05,0.324 -0.344,0.144 -0.665,0.321 -0.964,0.52 l -1.17,-1.158 -1.567,1.579 1.168,1.157 c -0.403,0.613 -0.683,1.298 -0.825,2.017 l -1.659,0.003 v 2.222 l 1.672,-0.006 c 0.073,0.351 0.18,0.702 0.324,1.045 0.145,0.344 0.321,0.664 0.523,0.961 l -1.199,1.197 1.584,1.56 1.196,-1.193 c 0.614,0.403 1.303,0.682 2.023,0.823 l 0.001,1.699 h 2.227 z m 0.221,-3.996 c -1.789,0.75 -3.858,-0.093 -4.61,-1.874 -0.752,-1.783 0.091,-3.846 1.88,-4.596 1.788,-0.749 3.857,0.093 4.609,1.874 0.752,1.782 -0.091,3.846 -1.879,4.596 z" fill="#ffffff" stroke="#000000" stroke-width="0.5"/><path d="m 1189.221,134.004 c -1.789,0.75 -3.858,-0.093 -4.61,-1.874 -0.752,-1.783 0.091,-3.846 1.88,-4.596 1.788,-0.749 3.857,0.093 4.609,1.874 0.752,1.782 -0.091,3.846 -1.879,4.596 z" fill="#000000" stroke="#000000" stroke-width="0.5"/></g>
<text x="1216" y="159" text-anchor="middle" dominant-baseline="middle" font-size="12" fill="#000000">Close rental</text>
<rect x="1186" y="250" width="100" height="80" rx="10" ry="10" fill="#ffffff" fill-opacity="0.95" stroke="#000000" stroke-width="2"/>
<g><path d="m 1204,274 v -1.713 c 0.352,-0.071 0.704,-0.178 1.048,-0.321 0.344,-0.145 0.666,-0.321 0.966,-0.521 l 1.194,1.18 1.567,-1.577 -1.195,-1.18 c 0.403,-0.614 0.683,-1.299 0.825,-2.018 l 1.622,-0.01 v -2.22 l -1.637,0.01 c -0.073,-0.352 -0.178,-0.7 -0.324,-1.044 -0.145,-0.344 -0.321,-0.664 -0.523,-0.962 l 1.131,-1.136 -1.583,-1.563 -1.13,1.136 c -0.614,-0.401 -1.303,-0.681 -2.023,-0.822 l 0.009,-1.619 h -2.241 l 0.004,1.631 c -0.354,0.074 -0.705,0.18 -1.05,0.324 -0.344,0.144 -0.665,0.321 -0.964,0.52 l -1.17,-1.158 -1.567,1.579 1.168,1.157 c -0.403,0.613 -0.683,1.298 -0.825,2.017 l -1.659,0.003 v 2.222 l 1.672,-0.006 c 0.073,0.351 0.18,0.702 0.324,1.045 0.145,0.344 0.321,0.664 0.523,0.961 l -1.199,1.197 1.584,1.56 1.196,-1.193 c 0.614,0.403 1.303,0.682 2.023,0.823 l 0.001,1.699 h 2.227 z m 0.221,-3.996 c -1.789,0.75 -3.858,-0.093 -4.61,-1.874 -0.752,-1.783 0.091,-3.846 1.88,-4.596 1.788,-0.749 3.857,0.093 4.609,1.874 0.752,1.782 -0.091,3.846 -1.879,4.596 z" fill="#ffffff" stroke="#000000" stroke-width="0.5"/><path d="m 1204.221,270.004 c -1.789,0.75 -3.858,-0.093 -4.61,-1.874 -0.752,-1.783 0.091,-3.846 1.88,-4.596 1.788,-0.749 3.857,0.093 4.609,1.874 0.752,1.782 -0.091,3.846 -1.879,4.596 z" fill="none" stroke="#000000" stroke-width="0.5"/><path d="m 1209,278 v -1.713 c 0.352,-0.071 0.704,-0.178 1.048,-0.321 0.344,-0.145 0.666,-0.321 0.966,-0.521 l 1.194,1.18 1.567,-1.577 -1.195,-1.18 c 0.403,-0.614 0.683,-1.299 0.825,-2.018 l 1.622,-0.01 v -2.22 l -1.637,0.01 c -0.073,-0.352 -0.178,-0.7 -0.324,-1.044 -0.145,-0.344 -0.321,-0.664 -0.523,-0.962 l 1.131,-1.136 -1.583,-1.563 -1.13,1.136 c -0.614,-0.401 -1.303,-0.681 -2.023,-0.822 l 0.009,-1.619 h -2.241 l 0.004,1.631 c -0.354,0.074 -0.705,0.18 -1.05,0.324 -0.344,0.144 -0.665,0.321 -0.964,0.52 l -1.17,-1.158 -1.567,1.579 1.168,1.157 c -0.403,0.613 -0.683,1.298 -0.825,2.017 l -1.659,0.003 v 2.222 l 1.672,-0.006 c 0.073,0.351 0.18,0.702 0.324,1.045 0.145,0.344 0.321,0.664 0.523,0.961 l -1.199,1.197 1.584,1.56 1.196,-1.193 c 0.614,0.403 1.303,0.682 2.023,0.823 l 0.001,1.699 h 2.227 z m 0.221,-3.996 c -1.789,0.75 -3.858,-0.093 -4.61,-1.874 -0.752,-1.783 0.091,-3.846 1.88,-4.596 1.788,-0.749 3.857,0.093 4.609,1.874 0.752,1.782 -0.091,3.846 -1.879,4.596 z" fill="#ffffff" stroke="#000000" stroke-width="0.5"/><path d="m 1209.221,274.004 c -1.789,0.75 -3.858,-0.093 -4.61,-1.874 -0.752,-1.783 0.091,-3.846 1.88,-4.596 1.788,-0.749 3.857,0.093 4.609,1.874 0.752,1.782 -0.091,3.846 -1.879,4.596 z" fill="#000000" stroke="#000000" stroke-width="0.5"/></g>
<text x="1236" y="292" text-anchor="middle" dominant-baseline="middle" font-size="12" fill="#000000">Charge damage /</text>
<text x="1236" y="306" text-anchor="middle" dominant-baseline="middle" font-size="12" fill="#000000">loss</text>
<circle cx="1364" cy="149.5" r="18" fill="#ffffff" fill-opacity="0.95" stroke="#000000" stroke-width="4"/>
<text x="1364" y="187.5" text-anchor="middle" font-size="11" fill="#000000">Settled, no</text>
<text x="1364" y="200.5" text-anchor="middle" font-size="11" fill="#000000">dispute</text>
<circle cx="1384" cy="289.5" r="18" fill="#ffffff" fill-opacity="0.95" stroke="#000000" stroke-width="4"/>
<text x="1384" y="327.5" text-anchor="middle" font-size="11" fill="#000000">Charged from</text>
<text x="1384" y="340.5" text-anchor="middle" font-size="11" fill="#000000">record</text>
</svg>